<mxfile host="app.diagrams.net" modified="2020-04-21T07:44:14.399Z" agent="5.0 (Windows NT 10.0; Win64; x64) AppleWebKit/537.36 (KHTML, like Gecko) Chrome/81.0.4044.113 Safari/537.36" etag="3dPnoza1C6iG_sQQ9_uR" version="12.9.14" type="github">
  <diagram id="RDakOnnjeR9kb4Okva5i" name="Page-1">
    <mxGraphModel dx="1784" dy="515" grid="1" gridSize="10" guides="1" tooltips="1" connect="1" arrows="1" fold="1" page="1" pageScale="1" pageWidth="850" pageHeight="1100" math="0" shadow="0">
      <root>
        <mxCell id="0" />
        <mxCell id="1" parent="0" />
        <mxCell id="MKcImt3iipP7TzkXW-Rf-1" value="User" style="rounded=0;whiteSpace=wrap;html=1;" vertex="1" parent="1">
          <mxGeometry x="470" y="230" width="80" height="30" as="geometry" />
        </mxCell>
        <mxCell id="MKcImt3iipP7TzkXW-Rf-2" value="&lt;u&gt;USER_ID&lt;/u&gt;" style="ellipse;whiteSpace=wrap;html=1;" vertex="1" parent="1">
          <mxGeometry x="510" y="110" width="80" height="50" as="geometry" />
        </mxCell>
        <mxCell id="MKcImt3iipP7TzkXW-Rf-3" value="" style="endArrow=none;html=1;exitX=0.623;exitY=0.012;exitDx=0;exitDy=0;entryX=0.5;entryY=1;entryDx=0;entryDy=0;exitPerimeter=0;" edge="1" parent="1" source="MKcImt3iipP7TzkXW-Rf-1" target="MKcImt3iipP7TzkXW-Rf-2">
          <mxGeometry width="50" height="50" relative="1" as="geometry">
            <mxPoint x="480" y="230" as="sourcePoint" />
            <mxPoint x="530" y="180" as="targetPoint" />
          </mxGeometry>
        </mxCell>
        <mxCell id="MKcImt3iipP7TzkXW-Rf-4" value="USERNAME" style="ellipse;whiteSpace=wrap;html=1;" vertex="1" parent="1">
          <mxGeometry x="590" y="75" width="80" height="50" as="geometry" />
        </mxCell>
        <mxCell id="MKcImt3iipP7TzkXW-Rf-5" value="PASSWORD" style="ellipse;whiteSpace=wrap;html=1;" vertex="1" parent="1">
          <mxGeometry x="600" y="135" width="90" height="50" as="geometry" />
        </mxCell>
        <mxCell id="MKcImt3iipP7TzkXW-Rf-6" value="DATE" style="ellipse;whiteSpace=wrap;html=1;" vertex="1" parent="1">
          <mxGeometry x="470" y="50" width="80" height="50" as="geometry" />
        </mxCell>
        <mxCell id="MKcImt3iipP7TzkXW-Rf-7" value="PICTURE" style="ellipse;whiteSpace=wrap;html=1;" vertex="1" parent="1">
          <mxGeometry x="425" y="100" width="80" height="50" as="geometry" />
        </mxCell>
        <mxCell id="MKcImt3iipP7TzkXW-Rf-8" value="" style="endArrow=none;html=1;exitX=0.75;exitY=0;exitDx=0;exitDy=0;" edge="1" parent="1" source="MKcImt3iipP7TzkXW-Rf-1" target="MKcImt3iipP7TzkXW-Rf-4">
          <mxGeometry width="50" height="50" relative="1" as="geometry">
            <mxPoint x="700" y="240" as="sourcePoint" />
            <mxPoint x="700" y="210" as="targetPoint" />
          </mxGeometry>
        </mxCell>
        <mxCell id="MKcImt3iipP7TzkXW-Rf-9" value="" style="endArrow=none;html=1;entryX=0;entryY=1;entryDx=0;entryDy=0;exitX=1;exitY=0;exitDx=0;exitDy=0;" edge="1" parent="1" source="MKcImt3iipP7TzkXW-Rf-1" target="MKcImt3iipP7TzkXW-Rf-5">
          <mxGeometry width="50" height="50" relative="1" as="geometry">
            <mxPoint x="550" y="227" as="sourcePoint" />
            <mxPoint x="790" y="180" as="targetPoint" />
          </mxGeometry>
        </mxCell>
        <mxCell id="MKcImt3iipP7TzkXW-Rf-10" value="" style="endArrow=none;html=1;entryX=0.5;entryY=1;entryDx=0;entryDy=0;" edge="1" parent="1" target="MKcImt3iipP7TzkXW-Rf-6">
          <mxGeometry width="50" height="50" relative="1" as="geometry">
            <mxPoint x="510" y="228" as="sourcePoint" />
            <mxPoint x="810" y="180" as="targetPoint" />
          </mxGeometry>
        </mxCell>
        <mxCell id="MKcImt3iipP7TzkXW-Rf-11" value="" style="endArrow=none;html=1;exitX=0.25;exitY=0;exitDx=0;exitDy=0;entryX=0.698;entryY=0.956;entryDx=0;entryDy=0;entryPerimeter=0;" edge="1" parent="1" source="MKcImt3iipP7TzkXW-Rf-1" target="MKcImt3iipP7TzkXW-Rf-7">
          <mxGeometry width="50" height="50" relative="1" as="geometry">
            <mxPoint x="790" y="280" as="sourcePoint" />
            <mxPoint x="470" y="210" as="targetPoint" />
          </mxGeometry>
        </mxCell>
        <mxCell id="MKcImt3iipP7TzkXW-Rf-12" value="USER-VIDEO" style="rhombus;whiteSpace=wrap;html=1;" vertex="1" parent="1">
          <mxGeometry x="452.5" y="420" width="115" height="60" as="geometry" />
        </mxCell>
        <mxCell id="MKcImt3iipP7TzkXW-Rf-13" value="" style="endArrow=none;html=1;entryX=0.5;entryY=1;entryDx=0;entryDy=0;exitX=0.5;exitY=0;exitDx=0;exitDy=0;" edge="1" parent="1" source="MKcImt3iipP7TzkXW-Rf-12" target="MKcImt3iipP7TzkXW-Rf-1">
          <mxGeometry width="50" height="50" relative="1" as="geometry">
            <mxPoint x="590" y="350" as="sourcePoint" />
            <mxPoint x="640" y="300" as="targetPoint" />
          </mxGeometry>
        </mxCell>
        <mxCell id="MKcImt3iipP7TzkXW-Rf-14" value="1" style="text;html=1;strokeColor=none;fillColor=none;align=center;verticalAlign=middle;whiteSpace=wrap;rounded=0;" vertex="1" parent="1">
          <mxGeometry x="480" y="285" width="40" height="20" as="geometry" />
        </mxCell>
        <mxCell id="MKcImt3iipP7TzkXW-Rf-16" value="" style="endArrow=none;html=1;entryX=0.5;entryY=1;entryDx=0;entryDy=0;exitX=0.5;exitY=0;exitDx=0;exitDy=0;" edge="1" parent="1" source="MKcImt3iipP7TzkXW-Rf-17" target="MKcImt3iipP7TzkXW-Rf-12">
          <mxGeometry width="50" height="50" relative="1" as="geometry">
            <mxPoint x="510" y="450" as="sourcePoint" />
            <mxPoint x="570" y="430" as="targetPoint" />
          </mxGeometry>
        </mxCell>
        <mxCell id="MKcImt3iipP7TzkXW-Rf-17" value="Video" style="rounded=0;whiteSpace=wrap;html=1;" vertex="1" parent="1">
          <mxGeometry x="470" y="560" width="80" height="30" as="geometry" />
        </mxCell>
        <mxCell id="MKcImt3iipP7TzkXW-Rf-20" value="N" style="text;html=1;strokeColor=none;fillColor=none;align=center;verticalAlign=middle;whiteSpace=wrap;rounded=0;" vertex="1" parent="1">
          <mxGeometry x="480" y="517.5" width="40" height="20" as="geometry" />
        </mxCell>
        <mxCell id="MKcImt3iipP7TzkXW-Rf-21" value="DESCRIPTION" style="ellipse;whiteSpace=wrap;html=1;" vertex="1" parent="1">
          <mxGeometry x="345" y="660" width="90" height="50" as="geometry" />
        </mxCell>
        <mxCell id="MKcImt3iipP7TzkXW-Rf-22" value="DATE" style="ellipse;whiteSpace=wrap;html=1;" vertex="1" parent="1">
          <mxGeometry x="460" y="670" width="70" height="50" as="geometry" />
        </mxCell>
        <mxCell id="MKcImt3iipP7TzkXW-Rf-23" value="MP4_FILEPATH" style="ellipse;whiteSpace=wrap;html=1;" vertex="1" parent="1">
          <mxGeometry x="650" y="690" width="100" height="50" as="geometry" />
        </mxCell>
        <mxCell id="MKcImt3iipP7TzkXW-Rf-24" value="&lt;u&gt;VIDEO_ID&lt;/u&gt;" style="ellipse;whiteSpace=wrap;html=1;" vertex="1" parent="1">
          <mxGeometry x="510" y="720" width="80" height="50" as="geometry" />
        </mxCell>
        <mxCell id="MKcImt3iipP7TzkXW-Rf-25" value="THUMBNAIL" style="ellipse;whiteSpace=wrap;html=1;" vertex="1" parent="1">
          <mxGeometry x="355" y="720" width="90" height="50" as="geometry" />
        </mxCell>
        <mxCell id="MKcImt3iipP7TzkXW-Rf-26" value="TITLE" style="ellipse;whiteSpace=wrap;html=1;" vertex="1" parent="1">
          <mxGeometry x="655" y="630" width="70" height="50" as="geometry" />
        </mxCell>
        <mxCell id="MKcImt3iipP7TzkXW-Rf-27" value="&lt;u&gt;U&lt;/u&gt;S&lt;u&gt;E&lt;/u&gt;R&lt;u&gt;_&lt;/u&gt;I&lt;u&gt;D&lt;/u&gt;" style="ellipse;whiteSpace=wrap;html=1;" vertex="1" parent="1">
          <mxGeometry x="550" y="670" width="80" height="50" as="geometry" />
        </mxCell>
        <mxCell id="MKcImt3iipP7TzkXW-Rf-28" value="" style="endArrow=none;html=1;entryX=0.5;entryY=1;entryDx=0;entryDy=0;exitX=0.5;exitY=0;exitDx=0;exitDy=0;" edge="1" parent="1" source="MKcImt3iipP7TzkXW-Rf-24" target="MKcImt3iipP7TzkXW-Rf-17">
          <mxGeometry width="50" height="50" relative="1" as="geometry">
            <mxPoint x="180" y="550" as="sourcePoint" />
            <mxPoint x="230" y="500" as="targetPoint" />
          </mxGeometry>
        </mxCell>
        <mxCell id="MKcImt3iipP7TzkXW-Rf-29" value="" style="endArrow=none;html=1;exitX=0.638;exitY=1.026;exitDx=0;exitDy=0;entryX=0.5;entryY=0;entryDx=0;entryDy=0;exitPerimeter=0;" edge="1" parent="1" source="MKcImt3iipP7TzkXW-Rf-17" target="MKcImt3iipP7TzkXW-Rf-27">
          <mxGeometry width="50" height="50" relative="1" as="geometry">
            <mxPoint x="650" y="570" as="sourcePoint" />
            <mxPoint x="700" y="520" as="targetPoint" />
          </mxGeometry>
        </mxCell>
        <mxCell id="MKcImt3iipP7TzkXW-Rf-31" value="" style="endArrow=none;html=1;exitX=0;exitY=0;exitDx=0;exitDy=0;entryX=0.848;entryY=1;entryDx=0;entryDy=0;entryPerimeter=0;" edge="1" parent="1" source="MKcImt3iipP7TzkXW-Rf-23" target="MKcImt3iipP7TzkXW-Rf-17">
          <mxGeometry width="50" height="50" relative="1" as="geometry">
            <mxPoint x="600" y="640" as="sourcePoint" />
            <mxPoint x="650" y="590" as="targetPoint" />
          </mxGeometry>
        </mxCell>
        <mxCell id="MKcImt3iipP7TzkXW-Rf-32" value="" style="endArrow=none;html=1;exitX=0.689;exitY=0.04;exitDx=0;exitDy=0;exitPerimeter=0;entryX=0.345;entryY=0.968;entryDx=0;entryDy=0;entryPerimeter=0;" edge="1" parent="1" source="MKcImt3iipP7TzkXW-Rf-22" target="MKcImt3iipP7TzkXW-Rf-17">
          <mxGeometry width="50" height="50" relative="1" as="geometry">
            <mxPoint x="410" y="640" as="sourcePoint" />
            <mxPoint x="499" y="610" as="targetPoint" />
          </mxGeometry>
        </mxCell>
        <mxCell id="MKcImt3iipP7TzkXW-Rf-33" value="" style="endArrow=none;html=1;exitX=0;exitY=0;exitDx=0;exitDy=0;entryX=1;entryY=1;entryDx=0;entryDy=0;" edge="1" parent="1" source="MKcImt3iipP7TzkXW-Rf-26" target="MKcImt3iipP7TzkXW-Rf-17">
          <mxGeometry width="50" height="50" relative="1" as="geometry">
            <mxPoint x="710" y="610" as="sourcePoint" />
            <mxPoint x="760" y="560" as="targetPoint" />
          </mxGeometry>
        </mxCell>
        <mxCell id="MKcImt3iipP7TzkXW-Rf-34" value="" style="endArrow=none;html=1;exitX=1;exitY=0;exitDx=0;exitDy=0;entryX=0.25;entryY=1;entryDx=0;entryDy=0;" edge="1" parent="1" source="MKcImt3iipP7TzkXW-Rf-25" target="MKcImt3iipP7TzkXW-Rf-17">
          <mxGeometry width="50" height="50" relative="1" as="geometry">
            <mxPoint x="380" y="660" as="sourcePoint" />
            <mxPoint x="430" y="610" as="targetPoint" />
          </mxGeometry>
        </mxCell>
        <mxCell id="MKcImt3iipP7TzkXW-Rf-35" value="" style="endArrow=none;html=1;exitX=1;exitY=0;exitDx=0;exitDy=0;entryX=0.09;entryY=0.999;entryDx=0;entryDy=0;entryPerimeter=0;" edge="1" parent="1" source="MKcImt3iipP7TzkXW-Rf-21" target="MKcImt3iipP7TzkXW-Rf-17">
          <mxGeometry width="50" height="50" relative="1" as="geometry">
            <mxPoint x="310" y="620" as="sourcePoint" />
            <mxPoint x="360" y="570" as="targetPoint" />
          </mxGeometry>
        </mxCell>
        <mxCell id="MKcImt3iipP7TzkXW-Rf-36" value="VIEWS" style="ellipse;whiteSpace=wrap;html=1;" vertex="1" parent="1">
          <mxGeometry x="230" y="680" width="70" height="50" as="geometry" />
        </mxCell>
        <mxCell id="MKcImt3iipP7TzkXW-Rf-37" value="GENRE" style="ellipse;whiteSpace=wrap;html=1;" vertex="1" parent="1">
          <mxGeometry x="275" y="630" width="70" height="50" as="geometry" />
        </mxCell>
        <mxCell id="MKcImt3iipP7TzkXW-Rf-38" value="KEYWORDS" style="ellipse;whiteSpace=wrap;html=1;" vertex="1" parent="1">
          <mxGeometry x="180" y="610" width="90" height="50" as="geometry" />
        </mxCell>
        <mxCell id="MKcImt3iipP7TzkXW-Rf-39" value="" style="endArrow=none;html=1;exitX=1;exitY=0.5;exitDx=0;exitDy=0;entryX=0;entryY=1;entryDx=0;entryDy=0;" edge="1" parent="1" source="MKcImt3iipP7TzkXW-Rf-36" target="MKcImt3iipP7TzkXW-Rf-17">
          <mxGeometry width="50" height="50" relative="1" as="geometry">
            <mxPoint x="270" y="600" as="sourcePoint" />
            <mxPoint x="320" y="550" as="targetPoint" />
          </mxGeometry>
        </mxCell>
        <mxCell id="MKcImt3iipP7TzkXW-Rf-40" value="" style="endArrow=none;html=1;exitX=1;exitY=0.5;exitDx=0;exitDy=0;entryX=0;entryY=0.75;entryDx=0;entryDy=0;" edge="1" parent="1" source="MKcImt3iipP7TzkXW-Rf-37" target="MKcImt3iipP7TzkXW-Rf-17">
          <mxGeometry width="50" height="50" relative="1" as="geometry">
            <mxPoint x="300" y="590" as="sourcePoint" />
            <mxPoint x="360" y="550" as="targetPoint" />
          </mxGeometry>
        </mxCell>
        <mxCell id="MKcImt3iipP7TzkXW-Rf-41" value="" style="endArrow=none;html=1;exitX=1;exitY=0.5;exitDx=0;exitDy=0;entryX=0;entryY=0.5;entryDx=0;entryDy=0;" edge="1" parent="1" source="MKcImt3iipP7TzkXW-Rf-38" target="MKcImt3iipP7TzkXW-Rf-17">
          <mxGeometry width="50" height="50" relative="1" as="geometry">
            <mxPoint x="260" y="585" as="sourcePoint" />
            <mxPoint x="460" y="575" as="targetPoint" />
          </mxGeometry>
        </mxCell>
        <mxCell id="MKcImt3iipP7TzkXW-Rf-44" value="Subscriber" style="rounded=0;whiteSpace=wrap;html=1;" vertex="1" parent="1">
          <mxGeometry x="115" y="127.5" width="80" height="30" as="geometry" />
        </mxCell>
        <mxCell id="MKcImt3iipP7TzkXW-Rf-45" value="USER-SUB" style="rhombus;whiteSpace=wrap;html=1;" vertex="1" parent="1">
          <mxGeometry x="270" y="157.5" width="100" height="60" as="geometry" />
        </mxCell>
        <mxCell id="MKcImt3iipP7TzkXW-Rf-46" value="" style="endArrow=none;html=1;exitX=1;exitY=0.5;exitDx=0;exitDy=0;entryX=0.047;entryY=0.435;entryDx=0;entryDy=0;entryPerimeter=0;" edge="1" parent="1" source="MKcImt3iipP7TzkXW-Rf-44" target="MKcImt3iipP7TzkXW-Rf-45">
          <mxGeometry width="50" height="50" relative="1" as="geometry">
            <mxPoint x="260" y="237.5" as="sourcePoint" />
            <mxPoint x="278" y="205.5" as="targetPoint" />
          </mxGeometry>
        </mxCell>
        <mxCell id="MKcImt3iipP7TzkXW-Rf-47" value="" style="endArrow=none;html=1;exitX=1;exitY=0.5;exitDx=0;exitDy=0;entryX=0;entryY=0.5;entryDx=0;entryDy=0;" edge="1" parent="1" source="MKcImt3iipP7TzkXW-Rf-45" target="MKcImt3iipP7TzkXW-Rf-1">
          <mxGeometry width="50" height="50" relative="1" as="geometry">
            <mxPoint x="350" y="330" as="sourcePoint" />
            <mxPoint x="400" y="280" as="targetPoint" />
          </mxGeometry>
        </mxCell>
        <mxCell id="MKcImt3iipP7TzkXW-Rf-48" value="N" style="text;html=1;strokeColor=none;fillColor=none;align=center;verticalAlign=middle;whiteSpace=wrap;rounded=0;" vertex="1" parent="1">
          <mxGeometry x="210" y="140" width="40" height="20" as="geometry" />
        </mxCell>
        <mxCell id="MKcImt3iipP7TzkXW-Rf-49" value="1" style="text;html=1;strokeColor=none;fillColor=none;align=center;verticalAlign=middle;whiteSpace=wrap;rounded=0;" vertex="1" parent="1">
          <mxGeometry x="390" y="190" width="40" height="20" as="geometry" />
        </mxCell>
        <mxCell id="MKcImt3iipP7TzkXW-Rf-51" value="SUB-USER" style="rhombus;whiteSpace=wrap;html=1;" vertex="1" parent="1">
          <mxGeometry x="270" y="87.5" width="100" height="60" as="geometry" />
        </mxCell>
        <mxCell id="MKcImt3iipP7TzkXW-Rf-52" value="" style="endArrow=none;html=1;exitX=1;exitY=0.5;exitDx=0;exitDy=0;entryX=0;entryY=0.5;entryDx=0;entryDy=0;" edge="1" parent="1" source="MKcImt3iipP7TzkXW-Rf-44" target="MKcImt3iipP7TzkXW-Rf-51">
          <mxGeometry width="50" height="50" relative="1" as="geometry">
            <mxPoint x="260" y="167.5" as="sourcePoint" />
            <mxPoint x="310" y="117.5" as="targetPoint" />
          </mxGeometry>
        </mxCell>
        <mxCell id="MKcImt3iipP7TzkXW-Rf-53" value="" style="endArrow=none;html=1;entryX=1;entryY=0.5;entryDx=0;entryDy=0;exitX=0;exitY=0.5;exitDx=0;exitDy=0;" edge="1" parent="1" source="MKcImt3iipP7TzkXW-Rf-1" target="MKcImt3iipP7TzkXW-Rf-51">
          <mxGeometry width="50" height="50" relative="1" as="geometry">
            <mxPoint x="240" y="230" as="sourcePoint" />
            <mxPoint x="290" y="180" as="targetPoint" />
          </mxGeometry>
        </mxCell>
        <mxCell id="MKcImt3iipP7TzkXW-Rf-54" value="N" style="text;html=1;strokeColor=none;fillColor=none;align=center;verticalAlign=middle;whiteSpace=wrap;rounded=0;" vertex="1" parent="1">
          <mxGeometry x="430" y="190" width="40" height="20" as="geometry" />
        </mxCell>
        <mxCell id="MKcImt3iipP7TzkXW-Rf-57" value="M" style="text;html=1;strokeColor=none;fillColor=none;align=center;verticalAlign=middle;whiteSpace=wrap;rounded=0;" vertex="1" parent="1">
          <mxGeometry x="205" y="110" width="40" height="20" as="geometry" />
        </mxCell>
        <mxCell id="MKcImt3iipP7TzkXW-Rf-60" value="" style="endArrow=none;html=1;entryX=0;entryY=0.5;entryDx=0;entryDy=0;exitX=1.004;exitY=0.687;exitDx=0;exitDy=0;exitPerimeter=0;" edge="1" parent="1" source="MKcImt3iipP7TzkXW-Rf-44" target="MKcImt3iipP7TzkXW-Rf-45">
          <mxGeometry width="50" height="50" relative="1" as="geometry">
            <mxPoint x="220" y="307.5" as="sourcePoint" />
            <mxPoint x="270" y="257.5" as="targetPoint" />
          </mxGeometry>
        </mxCell>
        <mxCell id="MKcImt3iipP7TzkXW-Rf-62" value="" style="endArrow=none;html=1;exitX=0.25;exitY=0;exitDx=0;exitDy=0;entryX=0.5;entryY=1;entryDx=0;entryDy=0;" edge="1" parent="1" source="MKcImt3iipP7TzkXW-Rf-44" target="MKcImt3iipP7TzkXW-Rf-63">
          <mxGeometry width="50" height="50" relative="1" as="geometry">
            <mxPoint x="145" y="107.5" as="sourcePoint" />
            <mxPoint x="155" y="97.5" as="targetPoint" />
          </mxGeometry>
        </mxCell>
        <mxCell id="MKcImt3iipP7TzkXW-Rf-63" value="&lt;u&gt;SUB_ID&lt;/u&gt;" style="ellipse;whiteSpace=wrap;html=1;" vertex="1" parent="1">
          <mxGeometry x="65" y="47.5" width="90" height="50" as="geometry" />
        </mxCell>
        <mxCell id="MKcImt3iipP7TzkXW-Rf-64" value="&lt;u&gt;S&lt;/u&gt;U&lt;u&gt;B&lt;/u&gt;_&lt;u&gt;K&lt;/u&gt;E&lt;u&gt;Y&lt;/u&gt;" style="ellipse;whiteSpace=wrap;html=1;" vertex="1" parent="1">
          <mxGeometry x="5" y="117.5" width="80" height="50" as="geometry" />
        </mxCell>
        <mxCell id="MKcImt3iipP7TzkXW-Rf-65" value="" style="endArrow=none;html=1;entryX=0;entryY=0.5;entryDx=0;entryDy=0;exitX=1;exitY=0.5;exitDx=0;exitDy=0;" edge="1" parent="1" source="MKcImt3iipP7TzkXW-Rf-64" target="MKcImt3iipP7TzkXW-Rf-44">
          <mxGeometry width="50" height="50" relative="1" as="geometry">
            <mxPoint x="75" y="237.5" as="sourcePoint" />
            <mxPoint x="125" y="187.5" as="targetPoint" />
          </mxGeometry>
        </mxCell>
        <mxCell id="MKcImt3iipP7TzkXW-Rf-66" value="&lt;u&gt;S&lt;/u&gt;U&lt;u&gt;B&lt;/u&gt;_&lt;u&gt;T&lt;/u&gt;O&lt;u&gt;_&lt;/u&gt;K&lt;u&gt;E&lt;/u&gt;Y" style="ellipse;whiteSpace=wrap;html=1;" vertex="1" parent="1">
          <mxGeometry x="35" y="182.5" width="90" height="50" as="geometry" />
        </mxCell>
        <mxCell id="MKcImt3iipP7TzkXW-Rf-67" value="" style="endArrow=none;html=1;exitX=1;exitY=0;exitDx=0;exitDy=0;entryX=0.25;entryY=1;entryDx=0;entryDy=0;" edge="1" parent="1" source="MKcImt3iipP7TzkXW-Rf-66" target="MKcImt3iipP7TzkXW-Rf-44">
          <mxGeometry width="50" height="50" relative="1" as="geometry">
            <mxPoint x="135" y="247.5" as="sourcePoint" />
            <mxPoint x="185" y="197.5" as="targetPoint" />
          </mxGeometry>
        </mxCell>
        <mxCell id="MKcImt3iipP7TzkXW-Rf-69" value="USER-MESS" style="rhombus;whiteSpace=wrap;html=1;" vertex="1" parent="1">
          <mxGeometry x="650" y="215" width="110" height="60" as="geometry" />
        </mxCell>
        <mxCell id="MKcImt3iipP7TzkXW-Rf-71" value="" style="endArrow=none;html=1;exitX=1;exitY=0.5;exitDx=0;exitDy=0;entryX=0;entryY=0.5;entryDx=0;entryDy=0;" edge="1" parent="1" source="MKcImt3iipP7TzkXW-Rf-1" target="MKcImt3iipP7TzkXW-Rf-69">
          <mxGeometry width="50" height="50" relative="1" as="geometry">
            <mxPoint x="630" y="360" as="sourcePoint" />
            <mxPoint x="680" y="310" as="targetPoint" />
          </mxGeometry>
        </mxCell>
        <mxCell id="MKcImt3iipP7TzkXW-Rf-74" value="" style="endArrow=none;html=1;exitX=1;exitY=0.5;exitDx=0;exitDy=0;entryX=0;entryY=0.5;entryDx=0;entryDy=0;" edge="1" parent="1" source="MKcImt3iipP7TzkXW-Rf-69" target="MKcImt3iipP7TzkXW-Rf-75">
          <mxGeometry width="50" height="50" relative="1" as="geometry">
            <mxPoint x="800" y="220" as="sourcePoint" />
            <mxPoint x="840" y="240" as="targetPoint" />
          </mxGeometry>
        </mxCell>
        <mxCell id="MKcImt3iipP7TzkXW-Rf-75" value="Message" style="rounded=0;whiteSpace=wrap;html=1;" vertex="1" parent="1">
          <mxGeometry x="850" y="228.75" width="80" height="32.5" as="geometry" />
        </mxCell>
        <mxCell id="MKcImt3iipP7TzkXW-Rf-76" value="1" style="text;html=1;strokeColor=none;fillColor=none;align=center;verticalAlign=middle;whiteSpace=wrap;rounded=0;" vertex="1" parent="1">
          <mxGeometry x="570" y="225" width="40" height="20" as="geometry" />
        </mxCell>
        <mxCell id="MKcImt3iipP7TzkXW-Rf-77" value="N" style="text;html=1;strokeColor=none;fillColor=none;align=center;verticalAlign=middle;whiteSpace=wrap;rounded=0;" vertex="1" parent="1">
          <mxGeometry x="790" y="225" width="40" height="20" as="geometry" />
        </mxCell>
        <mxCell id="MKcImt3iipP7TzkXW-Rf-82" value="&lt;u&gt;MESSAGE_ID&lt;/u&gt;" style="ellipse;whiteSpace=wrap;html=1;" vertex="1" parent="1">
          <mxGeometry x="1030" y="335" width="100" height="50" as="geometry" />
        </mxCell>
        <mxCell id="MKcImt3iipP7TzkXW-Rf-83" value="MESSAGE" style="ellipse;whiteSpace=wrap;html=1;" vertex="1" parent="1">
          <mxGeometry x="960" y="225" width="90" height="50" as="geometry" />
        </mxCell>
        <mxCell id="MKcImt3iipP7TzkXW-Rf-84" value="DATE" style="ellipse;whiteSpace=wrap;html=1;" vertex="1" parent="1">
          <mxGeometry x="1060" y="185" width="80" height="55" as="geometry" />
        </mxCell>
        <mxCell id="MKcImt3iipP7TzkXW-Rf-85" value="&lt;u&gt;R&lt;/u&gt;E&lt;u&gt;C&lt;/u&gt;E&lt;u&gt;I&lt;/u&gt;V&lt;u&gt;E&lt;/u&gt;R&lt;u&gt;_&lt;/u&gt;I&lt;u&gt;D&lt;/u&gt;" style="ellipse;whiteSpace=wrap;html=1;" vertex="1" parent="1">
          <mxGeometry x="960" y="160" width="100" height="50" as="geometry" />
        </mxCell>
        <mxCell id="MKcImt3iipP7TzkXW-Rf-86" value="&lt;u&gt;S&lt;/u&gt;E&lt;u&gt;N&lt;/u&gt;D&lt;u&gt;E&lt;/u&gt;R&lt;u&gt;_&lt;/u&gt;I&lt;u&gt;D&lt;/u&gt;" style="ellipse;whiteSpace=wrap;html=1;" vertex="1" parent="1">
          <mxGeometry x="1010" y="275" width="90" height="50" as="geometry" />
        </mxCell>
        <mxCell id="MKcImt3iipP7TzkXW-Rf-87" value="" style="endArrow=none;html=1;exitX=0;exitY=0.5;exitDx=0;exitDy=0;entryX=1;entryY=1;entryDx=0;entryDy=0;" edge="1" parent="1" source="MKcImt3iipP7TzkXW-Rf-82" target="MKcImt3iipP7TzkXW-Rf-75">
          <mxGeometry width="50" height="50" relative="1" as="geometry">
            <mxPoint x="880" y="350" as="sourcePoint" />
            <mxPoint x="850" y="230" as="targetPoint" />
          </mxGeometry>
        </mxCell>
        <mxCell id="MKcImt3iipP7TzkXW-Rf-88" value="" style="endArrow=none;html=1;exitX=0;exitY=0.5;exitDx=0;exitDy=0;entryX=1;entryY=0.75;entryDx=0;entryDy=0;" edge="1" parent="1" source="MKcImt3iipP7TzkXW-Rf-86" target="MKcImt3iipP7TzkXW-Rf-75">
          <mxGeometry width="50" height="50" relative="1" as="geometry">
            <mxPoint x="880" y="330" as="sourcePoint" />
            <mxPoint x="915" y="360" as="targetPoint" />
          </mxGeometry>
        </mxCell>
        <mxCell id="MKcImt3iipP7TzkXW-Rf-89" value="" style="endArrow=none;html=1;exitX=0;exitY=1;exitDx=0;exitDy=0;entryX=0.75;entryY=0;entryDx=0;entryDy=0;" edge="1" parent="1" source="MKcImt3iipP7TzkXW-Rf-85" target="MKcImt3iipP7TzkXW-Rf-75">
          <mxGeometry width="50" height="50" relative="1" as="geometry">
            <mxPoint x="1020" y="350" as="sourcePoint" />
            <mxPoint x="1055" y="380" as="targetPoint" />
          </mxGeometry>
        </mxCell>
        <mxCell id="MKcImt3iipP7TzkXW-Rf-90" value="" style="endArrow=none;html=1;exitX=1;exitY=0.25;exitDx=0;exitDy=0;entryX=0;entryY=0.5;entryDx=0;entryDy=0;" edge="1" parent="1" source="MKcImt3iipP7TzkXW-Rf-75" target="MKcImt3iipP7TzkXW-Rf-83">
          <mxGeometry width="50" height="50" relative="1" as="geometry">
            <mxPoint x="1140" y="330" as="sourcePoint" />
            <mxPoint x="1175" y="360" as="targetPoint" />
          </mxGeometry>
        </mxCell>
        <mxCell id="MKcImt3iipP7TzkXW-Rf-91" value="" style="endArrow=none;html=1;exitX=1;exitY=0;exitDx=0;exitDy=0;entryX=0;entryY=0.5;entryDx=0;entryDy=0;" edge="1" parent="1" source="MKcImt3iipP7TzkXW-Rf-75" target="MKcImt3iipP7TzkXW-Rf-84">
          <mxGeometry width="50" height="50" relative="1" as="geometry">
            <mxPoint x="980" y="440" as="sourcePoint" />
            <mxPoint x="1015" y="470" as="targetPoint" />
          </mxGeometry>
        </mxCell>
        <mxCell id="MKcImt3iipP7TzkXW-Rf-92" value="MESS-SUB" style="rhombus;whiteSpace=wrap;html=1;" vertex="1" parent="1">
          <mxGeometry x="845" y="110" width="90" height="60" as="geometry" />
        </mxCell>
        <mxCell id="MKcImt3iipP7TzkXW-Rf-95" value="" style="endArrow=none;html=1;exitX=0.5;exitY=0;exitDx=0;exitDy=0;" edge="1" parent="1" source="MKcImt3iipP7TzkXW-Rf-75">
          <mxGeometry width="50" height="50" relative="1" as="geometry">
            <mxPoint x="750" y="160" as="sourcePoint" />
            <mxPoint x="890" y="170" as="targetPoint" />
          </mxGeometry>
        </mxCell>
        <mxCell id="MKcImt3iipP7TzkXW-Rf-96" value="" style="endArrow=none;html=1;exitX=0.5;exitY=0;exitDx=0;exitDy=0;entryX=0.5;entryY=1;entryDx=0;entryDy=0;" edge="1" parent="1" source="MKcImt3iipP7TzkXW-Rf-92" target="MKcImt3iipP7TzkXW-Rf-97">
          <mxGeometry width="50" height="50" relative="1" as="geometry">
            <mxPoint x="900" y="100" as="sourcePoint" />
            <mxPoint x="890" y="50" as="targetPoint" />
          </mxGeometry>
        </mxCell>
        <mxCell id="MKcImt3iipP7TzkXW-Rf-97" value="Conversation" style="rounded=0;whiteSpace=wrap;html=1;" vertex="1" parent="1">
          <mxGeometry x="850" y="31.25" width="80" height="32.5" as="geometry" />
        </mxCell>
        <mxCell id="MKcImt3iipP7TzkXW-Rf-98" value="N" style="text;html=1;strokeColor=none;fillColor=none;align=center;verticalAlign=middle;whiteSpace=wrap;rounded=0;" vertex="1" parent="1">
          <mxGeometry x="880" y="202.5" width="40" height="20" as="geometry" />
        </mxCell>
        <mxCell id="MKcImt3iipP7TzkXW-Rf-99" value="1" style="text;html=1;strokeColor=none;fillColor=none;align=center;verticalAlign=middle;whiteSpace=wrap;rounded=0;" vertex="1" parent="1">
          <mxGeometry x="880" y="67.5" width="40" height="20" as="geometry" />
        </mxCell>
        <mxCell id="MKcImt3iipP7TzkXW-Rf-100" value="" style="endArrow=none;html=1;exitX=0;exitY=0.5;exitDx=0;exitDy=0;entryX=1;entryY=0.5;entryDx=0;entryDy=0;" edge="1" parent="1" source="MKcImt3iipP7TzkXW-Rf-97" target="MKcImt3iipP7TzkXW-Rf-101">
          <mxGeometry width="50" height="50" relative="1" as="geometry">
            <mxPoint x="800" y="10" as="sourcePoint" />
            <mxPoint x="810" y="10" as="targetPoint" />
          </mxGeometry>
        </mxCell>
        <mxCell id="MKcImt3iipP7TzkXW-Rf-101" value="&lt;u&gt;U&lt;/u&gt;S&lt;u&gt;E&lt;/u&gt;R&lt;u&gt;_&lt;/u&gt;O&lt;u&gt;N&lt;/u&gt;E" style="ellipse;whiteSpace=wrap;html=1;" vertex="1" parent="1">
          <mxGeometry x="730" y="20" width="80" height="55" as="geometry" />
        </mxCell>
        <mxCell id="MKcImt3iipP7TzkXW-Rf-103" value="&lt;u&gt;U&lt;/u&gt;S&lt;u&gt;E&lt;/u&gt;R&lt;u&gt;_&lt;/u&gt;T&lt;u&gt;W&lt;/u&gt;O" style="ellipse;whiteSpace=wrap;html=1;" vertex="1" parent="1">
          <mxGeometry x="970" y="20" width="90" height="55" as="geometry" />
        </mxCell>
        <mxCell id="MKcImt3iipP7TzkXW-Rf-105" value="" style="endArrow=none;html=1;exitX=1;exitY=0.5;exitDx=0;exitDy=0;entryX=0;entryY=0.5;entryDx=0;entryDy=0;" edge="1" parent="1" source="MKcImt3iipP7TzkXW-Rf-97" target="MKcImt3iipP7TzkXW-Rf-103">
          <mxGeometry width="50" height="50" relative="1" as="geometry">
            <mxPoint x="980" y="100" as="sourcePoint" />
            <mxPoint x="1030" y="50" as="targetPoint" />
          </mxGeometry>
        </mxCell>
        <mxCell id="MKcImt3iipP7TzkXW-Rf-106" value="USER-COMM" style="rhombus;whiteSpace=wrap;html=1;" vertex="1" parent="1">
          <mxGeometry x="630" y="360" width="100" height="60" as="geometry" />
        </mxCell>
        <mxCell id="MKcImt3iipP7TzkXW-Rf-107" value="" style="endArrow=none;html=1;exitX=1;exitY=1;exitDx=0;exitDy=0;entryX=0;entryY=0.5;entryDx=0;entryDy=0;" edge="1" parent="1" source="MKcImt3iipP7TzkXW-Rf-1" target="MKcImt3iipP7TzkXW-Rf-106">
          <mxGeometry width="50" height="50" relative="1" as="geometry">
            <mxPoint x="530" y="320" as="sourcePoint" />
            <mxPoint x="580" y="270" as="targetPoint" />
          </mxGeometry>
        </mxCell>
        <mxCell id="MKcImt3iipP7TzkXW-Rf-108" value="" style="endArrow=none;html=1;exitX=1;exitY=0.5;exitDx=0;exitDy=0;entryX=0;entryY=0;entryDx=0;entryDy=0;" edge="1" parent="1" source="MKcImt3iipP7TzkXW-Rf-106" target="MKcImt3iipP7TzkXW-Rf-109">
          <mxGeometry width="50" height="50" relative="1" as="geometry">
            <mxPoint x="830" y="420" as="sourcePoint" />
            <mxPoint x="750" y="400" as="targetPoint" />
          </mxGeometry>
        </mxCell>
        <mxCell id="MKcImt3iipP7TzkXW-Rf-109" value="Comment" style="rounded=0;whiteSpace=wrap;html=1;" vertex="1" parent="1">
          <mxGeometry x="820" y="450" width="80" height="30" as="geometry" />
        </mxCell>
        <mxCell id="MKcImt3iipP7TzkXW-Rf-112" value="VIDEO-COMM" style="rhombus;whiteSpace=wrap;html=1;" vertex="1" parent="1">
          <mxGeometry x="630" y="500" width="110" height="60" as="geometry" />
        </mxCell>
        <mxCell id="MKcImt3iipP7TzkXW-Rf-113" value="" style="endArrow=none;html=1;exitX=1;exitY=0.5;exitDx=0;exitDy=0;entryX=0;entryY=1;entryDx=0;entryDy=0;" edge="1" parent="1" source="MKcImt3iipP7TzkXW-Rf-112" target="MKcImt3iipP7TzkXW-Rf-109">
          <mxGeometry width="50" height="50" relative="1" as="geometry">
            <mxPoint x="920" y="560" as="sourcePoint" />
            <mxPoint x="970" y="510" as="targetPoint" />
          </mxGeometry>
        </mxCell>
        <mxCell id="MKcImt3iipP7TzkXW-Rf-114" value="" style="endArrow=none;html=1;exitX=1;exitY=0;exitDx=0;exitDy=0;entryX=0;entryY=0.5;entryDx=0;entryDy=0;" edge="1" parent="1" source="MKcImt3iipP7TzkXW-Rf-17" target="MKcImt3iipP7TzkXW-Rf-112">
          <mxGeometry width="50" height="50" relative="1" as="geometry">
            <mxPoint x="680" y="600" as="sourcePoint" />
            <mxPoint x="730" y="550" as="targetPoint" />
          </mxGeometry>
        </mxCell>
        <mxCell id="MKcImt3iipP7TzkXW-Rf-115" value="1" style="text;html=1;strokeColor=none;fillColor=none;align=center;verticalAlign=middle;whiteSpace=wrap;rounded=0;" vertex="1" parent="1">
          <mxGeometry x="550" y="530" width="40" height="20" as="geometry" />
        </mxCell>
        <mxCell id="MKcImt3iipP7TzkXW-Rf-116" value="N" style="text;html=1;strokeColor=none;fillColor=none;align=center;verticalAlign=middle;whiteSpace=wrap;rounded=0;" vertex="1" parent="1">
          <mxGeometry x="770" y="475" width="40" height="20" as="geometry" />
        </mxCell>
        <mxCell id="MKcImt3iipP7TzkXW-Rf-117" value="1" style="text;html=1;strokeColor=none;fillColor=none;align=center;verticalAlign=middle;whiteSpace=wrap;rounded=0;" vertex="1" parent="1">
          <mxGeometry x="540" y="285" width="40" height="20" as="geometry" />
        </mxCell>
        <mxCell id="MKcImt3iipP7TzkXW-Rf-118" value="N" style="text;html=1;strokeColor=none;fillColor=none;align=center;verticalAlign=middle;whiteSpace=wrap;rounded=0;" vertex="1" parent="1">
          <mxGeometry x="770" y="430" width="40" height="20" as="geometry" />
        </mxCell>
        <mxCell id="MKcImt3iipP7TzkXW-Rf-119" value="" style="endArrow=none;html=1;exitX=0.75;exitY=0;exitDx=0;exitDy=0;entryX=0;entryY=1;entryDx=0;entryDy=0;" edge="1" parent="1" source="MKcImt3iipP7TzkXW-Rf-109" target="MKcImt3iipP7TzkXW-Rf-120">
          <mxGeometry width="50" height="50" relative="1" as="geometry">
            <mxPoint x="890" y="420" as="sourcePoint" />
            <mxPoint x="880" y="380" as="targetPoint" />
          </mxGeometry>
        </mxCell>
        <mxCell id="MKcImt3iipP7TzkXW-Rf-120" value="&lt;u&gt;COMMENT_ID&lt;/u&gt;" style="ellipse;whiteSpace=wrap;html=1;" vertex="1" parent="1">
          <mxGeometry x="900" y="395" width="100" height="55" as="geometry" />
        </mxCell>
        <mxCell id="MKcImt3iipP7TzkXW-Rf-121" value="MESSAGE" style="ellipse;whiteSpace=wrap;html=1;" vertex="1" parent="1">
          <mxGeometry x="910" y="500" width="80" height="55" as="geometry" />
        </mxCell>
        <mxCell id="MKcImt3iipP7TzkXW-Rf-123" value="&lt;u&gt;V&lt;/u&gt;I&lt;u&gt;D&lt;/u&gt;E&lt;u&gt;O&lt;/u&gt;_&lt;u&gt;I&lt;/u&gt;D" style="ellipse;whiteSpace=wrap;html=1;" vertex="1" parent="1">
          <mxGeometry x="1020" y="495" width="80" height="55" as="geometry" />
        </mxCell>
        <mxCell id="MKcImt3iipP7TzkXW-Rf-124" value="&lt;u&gt;U&lt;/u&gt;S&lt;u&gt;E&lt;/u&gt;R&lt;u&gt;_&lt;/u&gt;I&lt;u&gt;D&lt;/u&gt;" style="ellipse;whiteSpace=wrap;html=1;" vertex="1" parent="1">
          <mxGeometry x="965" y="445" width="80" height="55" as="geometry" />
        </mxCell>
        <mxCell id="MKcImt3iipP7TzkXW-Rf-125" value="DATE" style="ellipse;whiteSpace=wrap;html=1;" vertex="1" parent="1">
          <mxGeometry x="900" y="560" width="80" height="55" as="geometry" />
        </mxCell>
        <mxCell id="MKcImt3iipP7TzkXW-Rf-126" value="" style="endArrow=none;html=1;exitX=1;exitY=0.25;exitDx=0;exitDy=0;entryX=0;entryY=0.5;entryDx=0;entryDy=0;" edge="1" parent="1" source="MKcImt3iipP7TzkXW-Rf-109" target="MKcImt3iipP7TzkXW-Rf-124">
          <mxGeometry width="50" height="50" relative="1" as="geometry">
            <mxPoint x="840" y="530" as="sourcePoint" />
            <mxPoint x="930" y="362.5" as="targetPoint" />
          </mxGeometry>
        </mxCell>
        <mxCell id="MKcImt3iipP7TzkXW-Rf-130" value="" style="endArrow=none;html=1;exitX=1;exitY=0.5;exitDx=0;exitDy=0;entryX=0;entryY=0.5;entryDx=0;entryDy=0;" edge="1" parent="1" source="MKcImt3iipP7TzkXW-Rf-109" target="MKcImt3iipP7TzkXW-Rf-123">
          <mxGeometry width="50" height="50" relative="1" as="geometry">
            <mxPoint x="830" y="510" as="sourcePoint" />
            <mxPoint x="880" y="460" as="targetPoint" />
          </mxGeometry>
        </mxCell>
        <mxCell id="MKcImt3iipP7TzkXW-Rf-133" value="" style="endArrow=none;html=1;exitX=1;exitY=1;exitDx=0;exitDy=0;entryX=0;entryY=0;entryDx=0;entryDy=0;" edge="1" parent="1" source="MKcImt3iipP7TzkXW-Rf-109" target="MKcImt3iipP7TzkXW-Rf-121">
          <mxGeometry width="50" height="50" relative="1" as="geometry">
            <mxPoint x="1060" y="670" as="sourcePoint" />
            <mxPoint x="1110" y="620" as="targetPoint" />
          </mxGeometry>
        </mxCell>
        <mxCell id="MKcImt3iipP7TzkXW-Rf-134" value="" style="endArrow=none;html=1;exitX=0.75;exitY=1;exitDx=0;exitDy=0;entryX=0;entryY=0;entryDx=0;entryDy=0;" edge="1" parent="1" source="MKcImt3iipP7TzkXW-Rf-109" target="MKcImt3iipP7TzkXW-Rf-125">
          <mxGeometry width="50" height="50" relative="1" as="geometry">
            <mxPoint x="1050" y="700" as="sourcePoint" />
            <mxPoint x="1100" y="650" as="targetPoint" />
          </mxGeometry>
        </mxCell>
        <mxCell id="MKcImt3iipP7TzkXW-Rf-136" value="USER-PLAY" style="rhombus;whiteSpace=wrap;html=1;" vertex="1" parent="1">
          <mxGeometry x="295" y="290" width="115" height="60" as="geometry" />
        </mxCell>
        <mxCell id="MKcImt3iipP7TzkXW-Rf-137" value="" style="endArrow=none;html=1;exitX=1;exitY=0.5;exitDx=0;exitDy=0;entryX=0;entryY=1;entryDx=0;entryDy=0;" edge="1" parent="1" source="MKcImt3iipP7TzkXW-Rf-136" target="MKcImt3iipP7TzkXW-Rf-1">
          <mxGeometry width="50" height="50" relative="1" as="geometry">
            <mxPoint x="420" y="360" as="sourcePoint" />
            <mxPoint x="470" y="310" as="targetPoint" />
          </mxGeometry>
        </mxCell>
        <mxCell id="MKcImt3iipP7TzkXW-Rf-138" value="1" style="text;html=1;strokeColor=none;fillColor=none;align=center;verticalAlign=middle;whiteSpace=wrap;rounded=0;" vertex="1" parent="1">
          <mxGeometry x="425" y="260" width="40" height="20" as="geometry" />
        </mxCell>
        <mxCell id="MKcImt3iipP7TzkXW-Rf-139" value="Playlist" style="rounded=0;whiteSpace=wrap;html=1;" vertex="1" parent="1">
          <mxGeometry x="147.5" y="350" width="80" height="30" as="geometry" />
        </mxCell>
        <mxCell id="MKcImt3iipP7TzkXW-Rf-140" value="" style="endArrow=none;html=1;exitX=1;exitY=0;exitDx=0;exitDy=0;entryX=0;entryY=0.5;entryDx=0;entryDy=0;" edge="1" parent="1" source="MKcImt3iipP7TzkXW-Rf-139" target="MKcImt3iipP7TzkXW-Rf-136">
          <mxGeometry width="50" height="50" relative="1" as="geometry">
            <mxPoint x="190" y="360" as="sourcePoint" />
            <mxPoint x="240" y="310" as="targetPoint" />
          </mxGeometry>
        </mxCell>
        <mxCell id="MKcImt3iipP7TzkXW-Rf-141" value="N" style="text;html=1;strokeColor=none;fillColor=none;align=center;verticalAlign=middle;whiteSpace=wrap;rounded=0;" vertex="1" parent="1">
          <mxGeometry x="220" y="320" width="40" height="20" as="geometry" />
        </mxCell>
        <mxCell id="MKcImt3iipP7TzkXW-Rf-142" value="&lt;u&gt;U&lt;/u&gt;S&lt;u&gt;E&lt;/u&gt;R&lt;u&gt;_&lt;/u&gt;I&lt;u&gt;D&lt;/u&gt;" style="ellipse;whiteSpace=wrap;html=1;" vertex="1" parent="1">
          <mxGeometry x="-67.5" y="305" width="90" height="50" as="geometry" />
        </mxCell>
        <mxCell id="MKcImt3iipP7TzkXW-Rf-143" value="&lt;u&gt;PLAYLIST_ID&lt;/u&gt;" style="ellipse;whiteSpace=wrap;html=1;" vertex="1" parent="1">
          <mxGeometry x="32.5" y="285" width="90" height="50" as="geometry" />
        </mxCell>
        <mxCell id="MKcImt3iipP7TzkXW-Rf-144" value="TITLE" style="ellipse;whiteSpace=wrap;html=1;" vertex="1" parent="1">
          <mxGeometry x="-32.5" y="405" width="90" height="50" as="geometry" />
        </mxCell>
        <mxCell id="MKcImt3iipP7TzkXW-Rf-145" value="DATE" style="ellipse;whiteSpace=wrap;html=1;" vertex="1" parent="1">
          <mxGeometry x="2.5" y="350" width="70" height="50" as="geometry" />
        </mxCell>
        <mxCell id="MKcImt3iipP7TzkXW-Rf-147" value="" style="endArrow=none;html=1;exitX=1;exitY=1;exitDx=0;exitDy=0;entryX=0;entryY=0;entryDx=0;entryDy=0;" edge="1" parent="1" source="MKcImt3iipP7TzkXW-Rf-143" target="MKcImt3iipP7TzkXW-Rf-139">
          <mxGeometry width="50" height="50" relative="1" as="geometry">
            <mxPoint x="117.5" y="316.25" as="sourcePoint" />
            <mxPoint x="167.5" y="266.25" as="targetPoint" />
          </mxGeometry>
        </mxCell>
        <mxCell id="MKcImt3iipP7TzkXW-Rf-148" value="" style="endArrow=none;html=1;exitX=1;exitY=0.5;exitDx=0;exitDy=0;entryX=0;entryY=0.5;entryDx=0;entryDy=0;" edge="1" parent="1" source="MKcImt3iipP7TzkXW-Rf-142" target="MKcImt3iipP7TzkXW-Rf-139">
          <mxGeometry width="50" height="50" relative="1" as="geometry">
            <mxPoint x="-2.5" y="386.25" as="sourcePoint" />
            <mxPoint x="47.5" y="336.25" as="targetPoint" />
          </mxGeometry>
        </mxCell>
        <mxCell id="MKcImt3iipP7TzkXW-Rf-149" value="" style="endArrow=none;html=1;exitX=1;exitY=0.5;exitDx=0;exitDy=0;entryX=0;entryY=0.75;entryDx=0;entryDy=0;" edge="1" parent="1" source="MKcImt3iipP7TzkXW-Rf-145" target="MKcImt3iipP7TzkXW-Rf-139">
          <mxGeometry width="50" height="50" relative="1" as="geometry">
            <mxPoint x="157.5" y="426.25" as="sourcePoint" />
            <mxPoint x="207.5" y="376.25" as="targetPoint" />
          </mxGeometry>
        </mxCell>
        <mxCell id="MKcImt3iipP7TzkXW-Rf-150" value="" style="endArrow=none;html=1;exitX=1;exitY=0;exitDx=0;exitDy=0;entryX=0;entryY=1;entryDx=0;entryDy=0;" edge="1" parent="1" source="MKcImt3iipP7TzkXW-Rf-144" target="MKcImt3iipP7TzkXW-Rf-139">
          <mxGeometry width="50" height="50" relative="1" as="geometry">
            <mxPoint x="57.5" y="416.25" as="sourcePoint" />
            <mxPoint x="107.5" y="366.25" as="targetPoint" />
          </mxGeometry>
        </mxCell>
        <mxCell id="MKcImt3iipP7TzkXW-Rf-151" value="Playlist_Linker" style="rhombus;whiteSpace=wrap;html=1;" vertex="1" parent="1">
          <mxGeometry x="300" y="440" width="110" height="60" as="geometry" />
        </mxCell>
        <mxCell id="MKcImt3iipP7TzkXW-Rf-152" value="" style="endArrow=none;html=1;exitX=0;exitY=0;exitDx=0;exitDy=0;entryX=1;entryY=0.5;entryDx=0;entryDy=0;" edge="1" parent="1" source="MKcImt3iipP7TzkXW-Rf-17" target="MKcImt3iipP7TzkXW-Rf-151">
          <mxGeometry width="50" height="50" relative="1" as="geometry">
            <mxPoint x="360" y="460" as="sourcePoint" />
            <mxPoint x="410" y="410" as="targetPoint" />
          </mxGeometry>
        </mxCell>
        <mxCell id="MKcImt3iipP7TzkXW-Rf-153" value="N" style="text;html=1;strokeColor=none;fillColor=none;align=center;verticalAlign=middle;whiteSpace=wrap;rounded=0;" vertex="1" parent="1">
          <mxGeometry x="425" y="540" width="40" height="20" as="geometry" />
        </mxCell>
        <mxCell id="MKcImt3iipP7TzkXW-Rf-157" value="" style="endArrow=none;html=1;exitX=1;exitY=1;exitDx=0;exitDy=0;entryX=0;entryY=0;entryDx=0;entryDy=0;" edge="1" parent="1" source="MKcImt3iipP7TzkXW-Rf-139" target="MKcImt3iipP7TzkXW-Rf-151">
          <mxGeometry width="50" height="50" relative="1" as="geometry">
            <mxPoint x="300" y="400" as="sourcePoint" />
            <mxPoint x="300" y="470" as="targetPoint" />
          </mxGeometry>
        </mxCell>
        <mxCell id="MKcImt3iipP7TzkXW-Rf-158" value="1" style="text;html=1;strokeColor=none;fillColor=none;align=center;verticalAlign=middle;whiteSpace=wrap;rounded=0;" vertex="1" parent="1">
          <mxGeometry x="230" y="375" width="40" height="20" as="geometry" />
        </mxCell>
        <mxCell id="MKcImt3iipP7TzkXW-Rf-164" value="&lt;u&gt;V&lt;/u&gt;I&lt;u&gt;D&lt;/u&gt;E&lt;u&gt;O&lt;/u&gt;_&lt;u&gt;I&lt;/u&gt;D" style="ellipse;whiteSpace=wrap;html=1;" vertex="1" parent="1">
          <mxGeometry x="227.5" y="510" width="90" height="50" as="geometry" />
        </mxCell>
        <mxCell id="MKcImt3iipP7TzkXW-Rf-165" value="&lt;u&gt;P&lt;/u&gt;L&lt;u&gt;A&lt;/u&gt;Y&lt;u&gt;L&lt;/u&gt;I&lt;u&gt;S&lt;/u&gt;T&lt;u&gt;_&lt;/u&gt;I&lt;u&gt;D&lt;/u&gt;" style="ellipse;whiteSpace=wrap;html=1;" vertex="1" parent="1">
          <mxGeometry x="180" y="460" width="90" height="50" as="geometry" />
        </mxCell>
        <mxCell id="MKcImt3iipP7TzkXW-Rf-166" value="" style="endArrow=none;html=1;entryX=0;entryY=0.5;entryDx=0;entryDy=0;exitX=1;exitY=0.5;exitDx=0;exitDy=0;" edge="1" parent="1" source="MKcImt3iipP7TzkXW-Rf-165" target="MKcImt3iipP7TzkXW-Rf-151">
          <mxGeometry width="50" height="50" relative="1" as="geometry">
            <mxPoint x="200" y="460" as="sourcePoint" />
            <mxPoint x="250" y="410" as="targetPoint" />
          </mxGeometry>
        </mxCell>
        <mxCell id="MKcImt3iipP7TzkXW-Rf-167" value="" style="endArrow=none;html=1;exitX=1;exitY=0;exitDx=0;exitDy=0;entryX=0;entryY=1;entryDx=0;entryDy=0;" edge="1" parent="1" source="MKcImt3iipP7TzkXW-Rf-164" target="MKcImt3iipP7TzkXW-Rf-151">
          <mxGeometry width="50" height="50" relative="1" as="geometry">
            <mxPoint x="340" y="560" as="sourcePoint" />
            <mxPoint x="390" y="510" as="targetPoint" />
          </mxGeometry>
        </mxCell>
      </root>
    </mxGraphModel>
  </diagram>
</mxfile>
